<?xml version="1.0" encoding="utf-8"?>
<!-- Generator: Adobe Illustrator 17.1.0, SVG Export Plug-In . SVG Version: 6.00 Build 0)  -->
<!DOCTYPE svg PUBLIC "-//W3C//DTD SVG 1.1//EN" "http://www.w3.org/Graphics/SVG/1.1/DTD/svg11.dtd">
<svg version="1.1" id="Layer_1" xmlns="http://www.w3.org/2000/svg" xmlns:xlink="http://www.w3.org/1999/xlink" x="0px" y="0px"
	 viewBox="0 0 512 512" enable-background="new 0 0 512 512" xml:space="preserve">
<path id="photo-camera-4-icon" fill="#FFFFFF" d="M339.7,277.5c0,29.4-23.9,53.3-53.3,53.3c-29.4,0-53.3-23.9-53.3-53.3
	c0-29.4,23.9-53.3,53.3-53.3C315.7,224.2,339.7,248.1,339.7,277.5z M462,148.1v267H50v-267h113.2c11.3,0,21.6-6.3,26.7-16.3
	l17.9-34.9h153.7l19.8,35.8c5.3,9.5,15.3,15.5,26.2,15.5H462z M154.8,206.4c0-11.3-9.2-20.5-20.5-20.5s-20.5,9.2-20.5,20.5
	s9.2,20.5,20.5,20.5S154.8,217.7,154.8,206.4z M385.5,277.5c0-54.7-44.5-96.9-99.1-96.9s-99.1,42.2-99.1,96.9
	c0,54.7,44.5,99.1,99.1,99.1S385.5,332.1,385.5,277.5z M142.3,104.6H76.8v27h65.5V104.6z"/>
</svg>
